<svg xmlns="http://www.w3.org/2000/svg" xmlns:xlink="http://www.w3.org/1999/xlink" preserveAspectRatio="xMidYMid" width="16" height="13" viewBox="0 0 16 13">
  <defs>
    <style>
      .cls-1 {
        fill: #fff;
        fill-rule: evenodd;
      }
    </style>
  </defs>
  <path d="M16.008,4.198 C15.740,4.503 15.437,4.770 15.115,5.001 C13.625,6.045 12.125,7.098 10.670,8.188 C9.920,8.761 8.992,9.463 8.019,9.463 L8.010,9.463 L8.001,9.463 C7.028,9.463 6.100,8.761 5.350,8.188 C3.895,7.089 2.395,6.045 0.914,5.001 C0.583,4.770 0.280,4.503 0.012,4.198 L0.012,11.532 C0.012,12.345 0.655,13.010 1.440,13.010 L14.580,13.010 C15.365,13.010 16.008,12.345 16.008,11.532 L16.008,4.198 ZM16.008,1.482 C16.008,0.669 15.356,0.004 14.580,0.004 L1.440,0.004 C0.485,0.004 0.012,0.780 0.012,1.685 C0.012,2.526 0.914,3.570 1.547,4.013 C2.931,5.011 4.332,6.008 5.716,7.015 C6.296,7.431 7.278,8.281 8.001,8.281 L8.010,8.281 L8.019,8.281 C8.742,8.281 9.724,7.431 10.304,7.015 C11.688,6.008 13.089,5.011 14.482,4.013 C15.267,3.450 16.008,2.517 16.008,1.482 Z" class="cls-1"/>
</svg>
