<svg xmlns="http://www.w3.org/2000/svg" viewBox="0 0 324.28089308079393 325" height="325" width="324.28089308079393"> 
  <g transform="matrix(1.6590646714457313,0,0,1.6590646714457313,0.001755385486488527,-0.0009777052644839254)" fill="#ffffff">
    <path d="M15.854 151.691a92.985 92.985 0 0 0 9.986 12.824c3.419 3.678 6.765 6.878 10.033 9.471 6.457 5.292 12.168 8.587 16.13 10.64 1.957 1.088 3.539 1.736 4.574 2.244l1.582.74.004.002 1.616.669c1.074.421 2.627 1.155 4.747 1.863 4.186 1.539 10.48 3.533 18.755 4.729 4.125.664 8.754.974 13.79 1.016 5.038.054 10.5-.319 16.256-1.273 11.488-1.888 24.259-6.126 36.484-13.84 6.086-3.865 12.053-8.532 17.511-14.106 5.473-5.556 10.393-12.023 14.618-19.164.555-.874 1.032-1.813 1.535-2.737.495-.927 1.009-1.856 1.491-2.791l1.339-2.814.673-1.414c.247-.552.415-1.001.627-1.507l1.214-2.966c.396-.996.724-2.021 1.091-3.035.76-2.02 1.329-4.114 1.956-6.203 1.124-4.212 2.1-8.523 2.659-12.943.356-2.199.498-4.435.71-6.672.081-1.12.102-2.247.155-3.375l.069-1.694-.008-1.698c-.007-9.07-1.336-18.278-3.912-27.241-1.292-4.482-2.958-8.877-4.871-13.185-1.947-4.295-4.247-8.446-6.779-12.467-2.562-4.006-5.466-7.806-8.579-11.438-3.136-3.617-6.592-6.96-10.223-10.107-3.652-3.127-7.584-5.924-11.649-8.506-4.076-2.533-8.464-4.767-12.765-6.688-4.502-1.888-9-3.503-13.664-4.753-4.66-1.196-9.382-2.147-14.152-2.669-4.77-.493-9.56-.726-14.329-.537-4.764.214-9.504.697-14.16 1.566-4.647.902-9.227 2.06-13.669 3.572-4.426 1.549-8.75 3.322-12.883 5.429-8.257 4.218-15.836 9.506-22.418 15.65l-1.241 1.141-1.185 1.194c-.784.8-1.59 1.576-2.35 2.392-1.484 1.666-3.015 3.277-4.374 5.022-2.837 3.392-5.313 7.013-7.618 10.674-1.096 1.867-2.234 3.691-3.195 5.619-.49.953-1.019 1.894-1.473 2.849l-1.327 2.863c-.221.485-.439.929-.662 1.447l-.586 1.466-1.168 2.916c-.356.98-.682 1.969-1.022 2.948-.332.982-.693 1.95-.957 2.947C1.88 77.648.478 85.591.114 93.322a100.052 100.052 0 0 0 1.425 22.284c2.541 14.134 7.991 26.362 14.315 36.085zM1.256 93.386c.45-7.636 1.929-15.457 4.346-23.202.271-.979.639-1.929.977-2.893.347-.961.679-1.931 1.041-2.892l1.185-2.858.595-1.435c.193-.441.438-.938.654-1.405l1.345-2.855c.458-.948.975-1.849 1.461-2.781.945-1.869 2.081-3.663 3.168-5.492 2.289-3.585 4.744-7.13 7.552-10.445 1.345-1.706 2.86-3.279 4.326-4.906.751-.797 1.548-1.554 2.322-2.335l1.17-1.165 1.226-1.113c6.497-5.992 13.964-11.131 22.081-15.215 4.062-2.04 8.31-3.75 12.651-5.241 4.358-1.454 8.847-2.559 13.397-3.414 4.559-.823 9.196-1.265 13.852-1.447 4.66-.156 9.336.101 13.988.61 4.652.538 9.253 1.496 13.79 2.688 4.515 1.237 8.974 2.876 13.236 4.69 4.369 1.997 8.454 4.124 12.439 6.637 3.936 2.544 7.738 5.292 11.264 8.36 3.504 3.086 6.837 6.358 9.855 9.894 2.994 3.551 5.784 7.259 8.239 11.166 2.426 3.921 4.626 7.962 6.48 12.14 1.814 4.192 3.414 8.454 4.645 12.802 2.455 8.693 3.696 17.61 3.668 26.382l.014 1.643-.062 1.639c-.049 1.09-.064 2.181-.139 3.265-.201 2.165-.328 4.328-.667 6.457-.526 4.278-1.46 8.454-2.533 12.536-.602 2.024-1.144 4.055-1.876 6.014-.353.983-.665 1.978-1.047 2.943l-1.168 2.878-.571 1.397-.653 1.423-1.3 2.833-1.393 2.69c-.469.89-.906 1.789-1.437 2.649-4.002 6.985-8.692 13.339-13.942 18.821-5.26 5.469-10.909 10.221-16.785 14.133-11.768 7.844-24.228 12.33-35.529 14.464-11.338 2.193-21.55 1.902-29.751.796-8.234-1.085-14.523-2.992-18.71-4.472-2.122-.679-3.677-1.391-4.752-1.797l-1.618-.646-1.58-.739c-1.033-.507-2.623-1.158-4.565-2.24-3.941-2.042-9.641-5.33-16.073-10.604-6.425-5.238-13.639-12.503-19.829-22.302-6.206-9.733-11.495-21.947-13.835-35.987a98.967 98.967 0 0 1-1.152-22.069z"></path>
  </g>
  <g transform="matrix(0.7812377998647949,0,0,0.7812377998647949,112.00077801472904,39.46905500338013)" fill="#ffffff">
    <path d="M74.313 0l-28.094 78h8.469l28.094-78h-8.469zm-36.313 11.25l-2.188 1.406-34 22-1.813 1.156v4.25l1.688 1.219 34 24 2.313 1.594v-9.781l-26.844-18.969 26.844-17.375v-9.5zm52 0v9.5l26.844 17.375-26.844 18.969v9.781l2.313-1.594 34-24 1.688-1.219v-4.25l-1.813-1.156-34-22-2.188-1.406z" transform="translate(0 25)"></path>
  </g>
  <g transform="matrix(2.52806729796748,0,0,2.52806729796748,67.05113691273375,121.66188877142613)" fill="#ffffff">
    <path d="M3.76 40.12 c-2.76 0.48 -4.84 -1.12 -3.2 -7.68 c1.16 -4.68 6.16 -20.92 7.12 -25.16 c0.04 -0.16 6.08 0.4 5.52 2.04 c-0.2 0.6 -2.12 5.2 -3.96 10.88 c-0.88 2.68 -1.72 5.28 -2.4 7.6 c2.28 -5.4 4.68 -8.52 7.84 -8.52 c4.28 0 5.52 7.44 -2.88 12 c-0.04 0.04 -0.04 0.08 0.04 0.24 c2.68 5.28 2.52 5.12 3.44 4.4 c0.88 -0.76 1.8 -1.96 3.12 -4.52 c0.76 -1.4 0.96 -1.52 0.96 -0.8 c0 0.24 -0.12 0.8 -0.6 1.64 c-1.2 2.12 -2.48 4.24 -3.76 5.64 c-1.48 1.6 -2.8 2.4 -3.76 2 c-1.24 -0.52 -1.72 -2.24 -4.36 -8 c0 0 0.04 -0.08 2.76 -2.48 c4.64 -4.08 4.36 -7.6 2.96 -7.6 c-1.96 0 -5.08 5.56 -8.28 15.96 c-0.48 2.16 -0.56 2.36 -0.56 2.36 z M21.153999999999996 19.08 c3.32 -0.6 5.68 2.12 2.4 10.24 c-2.28 5.68 -3.76 8.08 -2.36 8.08 c2 0 5.2 -5.8 8.48 -16.52 c0.08 -0.36 0.16 -0.64 0.24 -0.84 c0.12 -0.52 0.2 -0.68 0.2 -0.68 c1.12 -0.16 5.28 0.64 4.92 1.84 c-0.08 0.24 -1.44 4.04 -3.44 10.04 c-0.8 2.36 -1.68 5.16 -2.64 8.16 c-2.92 8.92 -8.48 11.64 -10.56 9.56 c-1.52 -1.52 -2.32 -4.6 -0.88 -8.12 l0.04 -0.04 c1.12 -0.16 4.68 0.68 4.32 1.88 c-0.08 0.32 -3.88 4.4 -3.12 4.76 c1.8 0.96 2.88 -1.84 5.36 -8.12 c0.8 -2.08 1.6 -4.52 2.36 -6.96 c-2 4.36 -4.28 7.48 -6.52 7.48 c-3.24 0 -4.04 -3.92 -1.36 -10.52 c3 -7.4 2.52 -10.24 2.56 -10.24 z M34.388 32.16 c0.72 -2.96 2.32 -9 3.72 -13.56 c1.52 -4.88 2.2 -6.92 3.12 -11.16 c0.04 -0.12 6.32 -0.04 5.56 1.88 c-0.04 0.16 -2.12 5.2 -3.96 10.88 c-1.88 5.72 -3.88 12.12 -4.32 14.76 c-0.28 1.8 0.2 2.12 1.04 1.52 c0.76 -0.6 2 -2.52 3.36 -5.08 c0.72 -1.4 0.96 -1.52 0.96 -0.8 c0 0.24 -0.12 0.8 -0.6 1.64 c-1.24 2.12 -2.52 4.24 -3.8 5.64 c-1.48 1.6 -2.72 2.24 -3.68 1.84 c-1.48 -0.6 -2.36 -3.72 -1.4 -7.56 z M56.982 23.6 c-0.48 2.52 -5.2 7.12 -9.96 10.36 c-0.04 2.28 0.6 3.76 1.72 3.96 c1.68 0.32 6.04 -2.16 8.32 -6.52 c0.76 -1.4 0.96 -1.52 0.96 -0.8 c0 0.24 -0.12 0.8 -0.6 1.64 c-2.32 4.04 -7 7.76 -10.28 7.76 c-3.6 0 -5.96 -5.2 -4.32 -10.52 c2.48 -8 9.32 -11.4 11.12 -9.64 c0.52 0.56 3.36 2 3.04 3.76 z M47.782 29.48 c-0.32 1.12 -0.52 2.16 -0.64 3.08 c4.48 -3.96 7.64 -10.68 6.44 -11.32 c-1.64 -0.84 -4.44 3.56 -5.8 8.24 z M74.536 29.84 c-0.56 0.92 -2.2 2.12 -4.04 2.8 c-2.52 5.08 -6.8 7.36 -9.76 7.36 c-3.48 0 -5.8 -5.2 -4.16 -10.52 c2.52 -8.16 9.4 -11.56 11.12 -9.64 c0.28 0.36 0.6 0.76 0.84 1.16 c0.12 -0.04 0.2 -0.04 0.32 -0.04 c3.16 0 4.4 3.72 2.76 8.92 l-0.6 1.64 c1.36 -0.52 2.6 -1.48 3.16 -2.52 c0.76 -1.4 0.96 -1.52 0.96 -0.8 c0 0.24 -0.08 0.8 -0.6 1.64 z M61.416 38.88 c1.72 0 3.2 -2.8 4.44 -6.36 c-3.04 -2 -1.32 -9.44 1.72 -11.2 l-0.24 -0.16 c-2.04 -1.08 -4.28 3 -5.8 8.32 c-1.36 4.68 -1.76 9.4 -0.12 9.4 z M67.976 22.2 c-1.12 0 -3.48 6.48 -1.64 8.88 l0.36 -1.2 c1.28 -4.6 2.64 -7.68 1.28 -7.68 z"></path>
  </g>
  <g transform="matrix(0.7773488343404982,0,0,0.7773488343404982,101.22328148796937,251.46527638845618)" fill="#ffffff">
    <path d="M5.14 20 c-0.12 0 -0.22 -0.08 -0.24 -0.18 l-3.88 -11.98 c-0.04 -0.08 -0.02 -0.16 0.04 -0.24 c0.04 -0.06 0.12 -0.1 0.2 -0.1 l2.8 0 c0.1 0 0.22 0.08 0.24 0.18 l2.08 7.22 l1.9 -6.86 c0.02 -0.12 0.12 -0.2 0.24 -0.2 l2.54 0 c0.12 0 0.22 0.08 0.26 0.2 l1.92 6.86 l2.04 -7.22 c0.04 -0.1 0.14 -0.18 0.26 -0.18 l2.68 0 c0.08 0 0.16 0.04 0.2 0.1 c0.06 0.08 0.06 0.16 0.04 0.24 l-3.9 11.98 c-0.04 0.1 -0.12 0.18 -0.24 0.18 l-2.34 0 c-0.12 0 -0.22 -0.08 -0.24 -0.18 l-2 -7.1 l-2.04 7.1 c-0.02 0.1 -0.12 0.18 -0.24 0.18 l-2.32 0 z M20.28 20 l0 -11.98 c0 -0.5 0.1 -0.6 0.26 -0.6 l8.76 0 c0.14 0 0.26 0.1 0.26 0.24 l0 2.26 c0 0.14 -0.12 0.26 -0.26 0.26 l-5.92 0 l0 2.08 l3.74 0 c0.14 0 0.26 0.12 0.26 0.26 l0 2.24 c0 0.14 -0.12 0.26 -0.26 0.26 l-3.74 0 l0 2.14 l5.9 0 c0.14 0 0.26 0.12 0.26 0.26 l0 2.24 c0 0.14 -0.12 0.26 -0.26 0.26 l-8.74 0 c-0.16 0 -0.26 -0.12 -0.26 0.08 z M31.820000000000004 20 c-0.14 0 -0.26 -0.12 -0.26 -0.26 l0 -11.98 c0 -0.14 0.12 -0.26 0.26 -0.26 l4.78 0 c1.32 0 2.2 0.28 2.98 0.86 c1.08 0.78 1.52 2.26 1.02 3.52 c-0.26 0.64 -0.7 0.98 -1.3 1.3 c0.86 0.12 1.4 0.68 1.72 1.08 c0.46 0.6 0.7 1.32 0.7 2.16 c0 1.1 -0.44 2 -1.28 2.64 c-0.82 0.62 -1.94 0.94 -3.32 0.94 l-5.3 0 z M34.5 12.08 l1.96 0 c0.4 0 0.72 -0.08 0.94 -0.26 c0.2 -0.18 0.3 -0.42 0.3 -0.74 c0 -0.3 -0.1 -0.54 -0.3 -0.7 c-0.2 -0.18 -0.5 -0.26 -0.86 -0.26 l-2.04 0 l0 1.96 z M34.5 17.54 l2.34 0 c0.6 0 1.06 -0.12 1.4 -0.36 c0.3 -0.22 0.46 -0.52 0.46 -0.94 c0 -0.38 -0.16 -0.66 -0.46 -0.88 c-0.32 -0.22 -0.76 -0.34 -1.32 -0.34 l-2.42 0 l0 2.52 z M49.379999999999995 20 c-0.16 0 -0.26 -0.12 -0.26 -0.26 l0 -11.98 c0 -0.14 0.1 -0.26 0.26 -0.26 l4.54 0 c1.2 0 2.3 0.26 3.26 0.8 c0.96 0.52 1.7 1.26 2.24 2.22 c0.52 0.94 0.8 2.02 0.8 3.22 c0 1.22 -0.28 2.3 -0.82 3.24 c-0.54 0.96 -1.3 1.7 -2.28 2.22 c-0.96 0.54 -2.08 0.8 -3.3 0.8 l-4.44 0 z M52.22 17.2 l1.76 0 c0.58 0 1.12 -0.14 1.58 -0.42 c0.46 -0.3 0.84 -0.7 1.1 -1.22 s0.4 -1.12 0.4 -1.8 c0 -0.66 -0.14 -1.28 -0.42 -1.8 c-0.28 -0.54 -0.66 -0.94 -1.14 -1.24 c-0.48 -0.28 -1.04 -0.44 -1.64 -0.44 l-1.64 0 l0 6.92 z M62.22 20 l0 -11.98 c0 -0.5 0.1 -0.6 0.26 -0.6 l8.76 0 c0.14 0 0.26 0.1 0.26 0.24 l0 2.26 c0 0.14 -0.12 0.26 -0.26 0.26 l-5.92 0 l0 2.08 l3.74 0 c0.14 0 0.26 0.12 0.26 0.26 l0 2.24 c0 0.14 -0.12 0.26 -0.26 0.26 l-3.74 0 l0 2.14 l5.9 0 c0.14 0 0.26 0.12 0.26 0.26 l0 2.24 c0 0.14 -0.12 0.26 -0.26 0.26 l-8.74 0 c-0.16 0 -0.26 -0.12 -0.26 0.08 z M77.76 20 c-0.1 0 -0.2 -0.06 -0.24 -0.16 l-4 -12 c-0.04 -0.08 -0.02 -0.16 0.02 -0.24 c0.06 -0.06 0.14 -0.1 0.22 -0.1 l2.8 0 c0.1 0 0.2 0.06 0.24 0.18 l2.38 7.82 l2.4 -7.82 c0.04 -0.12 0.14 -0.18 0.24 -0.18 l2.68 0 c0.08 0 0.16 0.04 0.22 0.1 c0.04 0.08 0.06 0.16 0.02 0.24 l-4.06 12 c-0.04 0.1 -0.12 0.16 -0.24 0.16 l-2.68 0 z M86.76 20 l0 -11.98 c0 -0.5 0.1 -0.6 0.26 -0.6 l8.76 0 c0.14 0 0.26 0.1 0.26 0.24 l0 2.26 c0 0.14 -0.12 0.26 -0.26 0.26 l-5.92 0 l0 2.08 l3.74 0 c0.14 0 0.26 0.12 0.26 0.26 l0 2.24 c0 0.14 -0.12 0.26 -0.26 0.26 l-3.74 0 l0 2.14 l5.9 0 c0.14 0 0.26 0.12 0.26 0.26 l0 2.24 c0 0.14 -0.12 0.26 -0.26 0.26 l-8.74 0 c-0.16 0 -0.26 -0.12 -0.26 0.08 z M98.30000000000001 20 c-0.14 0 -0.26 -0.12 -0.26 -0.26 l0 -11.98 c0 -0.14 0.12 -0.26 0.26 -0.26 l2.6 0 c0.14 0 0.26 0.12 0.26 0.26 l0 9.36 l4.5 0 c0.14 0 0.26 0.12 0.26 0.26 l0 2.36 c0 0.14 -0.12 0.26 -0.26 0.26 l-7.36 0 z M113.56 20 c-1.2 0 -2.3 -0.28 -3.26 -0.84 c-0.98 -0.56 -1.76 -1.36 -2.34 -2.32 c-0.56 -0.98 -0.84 -2.1 -0.84 -3.3 c0 -1.18 0.28 -2.28 0.84 -3.26 c0.58 -0.98 1.34 -1.76 2.32 -2.32 s2.08 -0.84 3.28 -0.84 c1.18 0 2.28 0.28 3.26 0.84 s1.76 1.34 2.32 2.32 c0.58 0.98 0.86 2.08 0.86 3.26 c0 1.2 -0.28 2.3 -0.86 3.28 c-0.56 0.98 -1.34 1.76 -2.32 2.34 c-0.98 0.56 -2.08 0.84 -3.26 0.84 z M113.60000000000001 17.12 c0.58 0 1.12 -0.16 1.6 -0.46 c0.5 -0.32 0.9 -0.74 1.18 -1.3 c0.3 -0.54 0.44 -1.16 0.44 -1.82 c0 -0.64 -0.14 -1.26 -0.44 -1.8 c-0.28 -0.54 -0.68 -0.96 -1.18 -1.28 c-0.48 -0.3 -1.02 -0.46 -1.6 -0.46 c-0.6 0 -1.14 0.16 -1.64 0.46 c-0.52 0.32 -0.92 0.74 -1.22 1.28 c-0.3 0.56 -0.44 1.16 -0.44 1.8 c0 0.66 0.14 1.28 0.44 1.82 c0.32 0.54 0.72 0.98 1.22 1.28 c0.5 0.32 1.04 0.48 1.64 0.48 z M122.24 20 c-0.14 0 -0.24 -0.12 -0.24 -0.26 l0 -11.98 c0 -0.14 0.1 -0.26 0.24 -0.26 l4.9 0 c1.52 0 2.72 0.38 3.56 1.16 c1.24 1.12 1.66 3.24 1.06 4.8 c-0.22 0.56 -0.6 1.08 -1.08 1.46 c-1.62 1.26 -3.64 1.14 -5.58 1.14 l0 3.68 c0 0.14 -0.12 0.26 -0.26 0.26 l-2.6 0 z M125.1 13.280000000000001 c0 0 2.52 0.28 3.4 -0.3 c0.34 -0.22 0.54 -0.76 0.54 -1.16 c-0.02 -0.44 -0.24 -0.9 -0.6 -1.18 c-0.38 -0.32 -1.32 -0.42 -1.8 -0.42 l-1.54 0.04 l0 3.02 z M134.06 20 l0 -11.98 c0 -0.5 0.1 -0.6 0.26 -0.6 l8.76 0 c0.14 0 0.26 0.1 0.26 0.24 l0 2.26 c0 0.14 -0.12 0.26 -0.26 0.26 l-5.92 0 l0 2.08 l3.74 0 c0.14 0 0.26 0.12 0.26 0.26 l0 2.24 c0 0.14 -0.12 0.26 -0.26 0.26 l-3.74 0 l0 2.14 l5.9 0 c0.14 0 0.26 0.12 0.26 0.26 l0 2.24 c0 0.14 -0.12 0.26 -0.26 0.26 l-8.74 0 c-0.16 0 -0.26 -0.12 -0.26 0.08 z M145.6 20 c-0.16 0 -0.26 -0.12 -0.26 -0.26 l0 -11.98 c0 -0.14 0.1 -0.26 0.26 -0.26 l4.88 0 c1.52 0 2.72 0.38 3.56 1.16 c1.24 1.12 1.66 3.24 1.06 4.8 c-0.22 0.56 -0.6 1.08 -1.08 1.46 c-0.28 0.22 -0.58 0.38 -0.88 0.54 c0.86 1.36 2.16 4.12 2.16 4.12 c0.02 0.04 0.06 0.1 0.06 0.16 c0 0.14 -0.12 0.26 -0.26 0.26 l-2.96 0 c-0.08 0 -0.18 -0.06 -0.22 -0.14 l-1.74 -3.82 c-0.62 0.04 -1.1 0.02 -1.74 0.02 l0 3.68 c0 0.14 -0.12 0.26 -0.26 0.26 l-2.58 0 z M148.44 13.280000000000001 c0 0 2.52 0.28 3.4 -0.3 c0.34 -0.22 0.54 -0.76 0.54 -1.16 c-0.02 -0.44 -0.24 -0.9 -0.6 -1.18 c-0.38 -0.32 -1.32 -0.42 -1.8 -0.42 l-1.54 0.04 l0 3.02 z"></path>
  </g>
</svg>